<svg xmlns="http://www.w3.org/2000/svg" viewBox="0 0 100 100" width="100" height="100"><metadata><rdf:RDF xmlns:rdf="http://www.w3.org/1999/02/22-rdf-syntax-ns#" xmlns:dc="http://purl.org/dc/elements/1.1/"><rdf:Description><dc:creator>RealFaviconGenerator</dc:creator><dc:source>https://realfavicongenerator.net</dc:source></rdf:Description></rdf:RDF></metadata><defs>
    <g id="tooth">
      <rect x="42" y="2" width="16" height="25" rx="3" fill="#1565c0"></rect>
    </g>
  </defs><circle cx="50" cy="50" r="38" fill="#1565c0"></circle><use href="#tooth"></use><use href="#tooth" transform="rotate(45 50 50)"></use><use href="#tooth" transform="rotate(90 50 50)"></use><use href="#tooth" transform="rotate(135 50 50)"></use><use href="#tooth" transform="rotate(180 50 50)"></use><use href="#tooth" transform="rotate(225 50 50)"></use><use href="#tooth" transform="rotate(270 50 50)"></use><use href="#tooth" transform="rotate(315 50 50)"></use><circle cx="50" cy="50" r="26" fill="#ffffff"></circle><polygon points="50,32 72,43 50,54 28,43" fill="#1565c0"></polygon><polygon points="34,48 34,62 50,70 66,62 66,48 50,58" fill="#1565c0"></polygon><path d="M 50 43 Q 68 40 70 55" fill="none" stroke="#ffb300" stroke-width="3" stroke-linecap="round"></path><circle cx="70" cy="58" r="3" fill="#ffb300"></circle></svg>